<svg id="visual" viewBox="0 0 900 600" width="900" height="600" xmlns="http://www.w3.org/2000/svg" xmlns:xlink="http://www.w3.org/1999/xlink" version="1.1"><path d="M583 0L576.7 16.7C570.3 33.3 557.7 66.7 535.5 100C513.3 133.3 481.7 166.7 485.7 200C489.7 233.3 529.3 266.7 526.3 300C523.3 333.3 477.7 366.7 462.3 400C447 433.3 462 466.7 484.7 500C507.3 533.3 537.7 566.7 552.8 583.3L568 600L0 600L0 583.3C0 566.7 0 533.3 0 500C0 466.7 0 433.3 0 400C0 366.7 0 333.3 0 300C0 266.7 0 233.3 0 200C0 166.7 0 133.3 0 100C0 66.7 0 33.3 0 16.7L0 0Z" fill="#46acc8"></path><path d="M404 0L400.7 16.7C397.3 33.3 390.7 66.7 383.3 100C376 133.3 368 166.7 361.2 200C354.3 233.3 348.7 266.7 364 300C379.3 333.3 415.7 366.7 425.8 400C436 433.3 420 466.7 407.2 500C394.3 533.3 384.7 566.7 379.8 583.3L375 600L0 600L0 583.3C0 566.7 0 533.3 0 500C0 466.7 0 433.3 0 400C0 366.7 0 333.3 0 300C0 266.7 0 233.3 0 200C0 166.7 0 133.3 0 100C0 66.7 0 33.3 0 16.7L0 0Z" fill="#00bac6"></path><path d="M374 0L368 16.7C362 33.3 350 66.7 338.8 100C327.7 133.3 317.3 166.7 328.8 200C340.3 233.3 373.7 266.7 383 300C392.3 333.3 377.7 366.7 361.8 400C346 433.3 329 466.7 323.2 500C317.3 533.3 322.7 566.7 325.3 583.3L328 600L0 600L0 583.3C0 566.7 0 533.3 0 500C0 466.7 0 433.3 0 400C0 366.7 0 333.3 0 300C0 266.7 0 233.3 0 200C0 166.7 0 133.3 0 100C0 66.7 0 33.3 0 16.7L0 0Z" fill="#00c6b5"></path><path d="M287 0L292 16.7C297 33.3 307 66.7 313.5 100C320 133.3 323 166.7 331.5 200C340 233.3 354 266.7 337.8 300C321.7 333.3 275.3 366.7 259 400C242.7 433.3 256.3 466.7 266.7 500C277 533.3 284 566.7 287.5 583.3L291 600L0 600L0 583.3C0 566.7 0 533.3 0 500C0 466.7 0 433.3 0 400C0 366.7 0 333.3 0 300C0 266.7 0 233.3 0 200C0 166.7 0 133.3 0 100C0 66.7 0 33.3 0 16.7L0 0Z" fill="#1fcf96"></path><path d="M282 0L267.2 16.7C252.3 33.3 222.7 66.7 224.5 100C226.3 133.3 259.7 166.7 259.5 200C259.3 233.3 225.7 266.7 213.7 300C201.7 333.3 211.3 366.7 207.7 400C204 433.3 187 466.7 200.5 500C214 533.3 258 566.7 280 583.3L302 600L0 600L0 583.3C0 566.7 0 533.3 0 500C0 466.7 0 433.3 0 400C0 366.7 0 333.3 0 300C0 266.7 0 233.3 0 200C0 166.7 0 133.3 0 100C0 66.7 0 33.3 0 16.7L0 0Z" fill="#6ad56e"></path><path d="M122 0L134.5 16.7C147 33.3 172 66.7 177.3 100C182.7 133.3 168.3 166.7 166.8 200C165.3 233.3 176.7 266.7 172.8 300C169 333.3 150 366.7 143.3 400C136.7 433.3 142.3 466.7 139.8 500C137.3 533.3 126.7 566.7 121.3 583.3L116 600L0 600L0 583.3C0 566.7 0 533.3 0 500C0 466.7 0 433.3 0 400C0 366.7 0 333.3 0 300C0 266.7 0 233.3 0 200C0 166.7 0 133.3 0 100C0 66.7 0 33.3 0 16.7L0 0Z" fill="#a5d741"></path><path d="M83 0L83.2 16.7C83.3 33.3 83.7 66.7 90.5 100C97.3 133.3 110.7 166.7 120.2 200C129.7 233.3 135.3 266.7 137.7 300C140 333.3 139 366.7 126.2 400C113.3 433.3 88.7 466.7 82.5 500C76.3 533.3 88.7 566.7 94.8 583.3L101 600L0 600L0 583.3C0 566.7 0 533.3 0 500C0 466.7 0 433.3 0 400C0 366.7 0 333.3 0 300C0 266.7 0 233.3 0 200C0 166.7 0 133.3 0 100C0 66.7 0 33.3 0 16.7L0 0Z" fill="#e2d200"></path></svg>