<svg id="visual" viewBox="0 0 900 600" width="900" height="600" xmlns="http://www.w3.org/2000/svg" xmlns:xlink="http://www.w3.org/1999/xlink" version="1.1"><path d="M737 600L759.5 592.3C782 584.7 827 569.3 834.5 554C842 538.7 812 523.3 780.5 508C749 492.7 716 477.3 711.5 461.8C707 446.3 731 430.7 746 415.2C761 399.7 767 384.3 767 369C767 353.7 761 338.3 777.5 323C794 307.7 833 292.3 831.5 277C830 261.7 788 246.3 765.5 231C743 215.7 740 200.3 734 184.8C728 169.3 719 153.7 720.5 138.2C722 122.7 734 107.3 743 92C752 76.7 758 61.3 764 46C770 30.7 776 15.3 779 7.7L782 0L900 0L900 7.7C900 15.3 900 30.7 900 46C900 61.3 900 76.7 900 92C900 107.3 900 122.7 900 138.2C900 153.7 900 169.3 900 184.8C900 200.3 900 215.7 900 231C900 246.3 900 261.7 900 277C900 292.3 900 307.7 900 323C900 338.3 900 353.7 900 369C900 384.3 900 399.7 900 415.2C900 430.7 900 446.3 900 461.8C900 477.3 900 492.7 900 508C900 523.3 900 538.7 900 554C900 569.3 900 584.7 900 592.3L900 600Z" fill="#e2d200"></path><path d="M719 600L737 592.3C755 584.7 791 569.3 789.5 554C788 538.7 749 523.3 720.5 508C692 492.7 674 477.3 680 461.8C686 446.3 716 430.7 734 415.2C752 399.7 758 384.3 758 369C758 353.7 752 338.3 765.5 323C779 307.7 812 292.3 809 277C806 261.7 767 246.3 740 231C713 215.7 698 200.3 686 184.8C674 169.3 665 153.7 674 138.2C683 122.7 710 107.3 719 92C728 76.7 719 61.3 720.5 46C722 30.7 734 15.3 740 7.7L746 0L783 0L780 7.7C777 15.3 771 30.7 765 46C759 61.3 753 76.7 744 92C735 107.3 723 122.7 721.5 138.2C720 153.7 729 169.3 735 184.8C741 200.3 744 215.7 766.5 231C789 246.3 831 261.7 832.5 277C834 292.3 795 307.7 778.5 323C762 338.3 768 353.7 768 369C768 384.3 762 399.7 747 415.2C732 430.7 708 446.3 712.5 461.8C717 477.3 750 492.7 781.5 508C813 523.3 843 538.7 835.5 554C828 569.3 783 584.7 760.5 592.3L738 600Z" fill="#c0d629"></path><path d="M710 600L722 592.3C734 584.7 758 569.3 746 554C734 538.7 686 523.3 657.5 508C629 492.7 620 477.3 626 461.8C632 446.3 653 430.7 677 415.2C701 399.7 728 384.3 734 369C740 353.7 725 338.3 728 323C731 307.7 752 292.3 749 277C746 261.7 719 246.3 692 231C665 215.7 638 200.3 618.5 184.8C599 169.3 587 153.7 605 138.2C623 122.7 671 107.3 680 92C689 76.7 659 61.3 659 46C659 30.7 689 15.3 704 7.7L719 0L747 0L741 7.7C735 15.3 723 30.7 721.5 46C720 61.3 729 76.7 720 92C711 107.3 684 122.7 675 138.2C666 153.7 675 169.3 687 184.8C699 200.3 714 215.7 741 231C768 246.3 807 261.7 810 277C813 292.3 780 307.7 766.5 323C753 338.3 759 353.7 759 369C759 384.3 753 399.7 735 415.2C717 430.7 687 446.3 681 461.8C675 477.3 693 492.7 721.5 508C750 523.3 789 538.7 790.5 554C792 569.3 756 584.7 738 592.3L720 600Z" fill="#a0d745"></path><path d="M602 600L617 592.3C632 584.7 662 569.3 656 554C650 538.7 608 523.3 591.5 508C575 492.7 584 477.3 585.5 461.8C587 446.3 581 430.7 596 415.2C611 399.7 647 384.3 665 369C683 353.7 683 338.3 681.5 323C680 307.7 677 292.3 671 277C665 261.7 656 246.3 632 231C608 215.7 569 200.3 549.5 184.8C530 169.3 530 153.7 546.5 138.2C563 122.7 596 107.3 606.5 92C617 76.7 605 61.3 603.5 46C602 30.7 611 15.3 615.5 7.7L620 0L720 0L705 7.7C690 15.3 660 30.7 660 46C660 61.3 690 76.7 681 92C672 107.3 624 122.7 606 138.2C588 153.7 600 169.3 619.5 184.8C639 200.3 666 215.7 693 231C720 246.3 747 261.7 750 277C753 292.3 732 307.7 729 323C726 338.3 741 353.7 735 369C729 384.3 702 399.7 678 415.2C654 430.7 633 446.3 627 461.8C621 477.3 630 492.7 658.5 508C687 523.3 735 538.7 747 554C759 569.3 735 584.7 723 592.3L711 600Z" fill="#80d65e"></path><path d="M557 600L570.5 592.3C584 584.7 611 569.3 611 554C611 538.7 584 523.3 567.5 508C551 492.7 545 477.3 543.5 461.8C542 446.3 545 430.7 563 415.2C581 399.7 614 384.3 627.5 369C641 353.7 635 338.3 633.5 323C632 307.7 635 292.3 636.5 277C638 261.7 638 246.3 612.5 231C587 215.7 536 200.3 513.5 184.8C491 169.3 497 153.7 513.5 138.2C530 122.7 557 107.3 563 92C569 76.7 554 61.3 551 46C548 30.7 557 15.3 561.5 7.7L566 0L621 0L616.5 7.7C612 15.3 603 30.7 604.5 46C606 61.3 618 76.7 607.5 92C597 107.3 564 122.7 547.5 138.2C531 153.7 531 169.3 550.5 184.8C570 200.3 609 215.7 633 231C657 246.3 666 261.7 672 277C678 292.3 681 307.7 682.5 323C684 338.3 684 353.7 666 369C648 384.3 612 399.7 597 415.2C582 430.7 588 446.3 586.5 461.8C585 477.3 576 492.7 592.5 508C609 523.3 651 538.7 657 554C663 569.3 633 584.7 618 592.3L603 600Z" fill="#5ed476"></path><path d="M512 600L501.5 592.3C491 584.7 470 569.3 459.5 554C449 538.7 449 523.3 423.5 508C398 492.7 347 477.3 353 461.8C359 446.3 422 430.7 461 415.2C500 399.7 515 384.3 497 369C479 353.7 428 338.3 422 323C416 307.7 455 292.3 476 277C497 261.7 500 246.3 464 231C428 215.7 353 200.3 335 184.8C317 169.3 356 153.7 398 138.2C440 122.7 485 107.3 462.5 92C440 76.7 350 61.3 336.5 46C323 30.7 386 15.3 417.5 7.7L449 0L567 0L562.5 7.7C558 15.3 549 30.7 552 46C555 61.3 570 76.7 564 92C558 107.3 531 122.7 514.5 138.2C498 153.7 492 169.3 514.5 184.8C537 200.3 588 215.7 613.5 231C639 246.3 639 261.7 637.5 277C636 292.3 633 307.7 634.5 323C636 338.3 642 353.7 628.5 369C615 384.3 582 399.7 564 415.2C546 430.7 543 446.3 544.5 461.8C546 477.3 552 492.7 568.5 508C585 523.3 612 538.7 612 554C612 569.3 585 584.7 571.5 592.3L558 600Z" fill="#38d18c"></path><path d="M503 600L491 592.3C479 584.7 455 569.3 434 554C413 538.7 395 523.3 368 508C341 492.7 305 477.3 315.5 461.8C326 446.3 383 430.7 423.5 415.2C464 399.7 488 384.3 474.5 369C461 353.7 410 338.3 404 323C398 307.7 437 292.3 450.5 277C464 261.7 452 246.3 408.5 231C365 215.7 290 200.3 279.5 184.8C269 169.3 323 153.7 365 138.2C407 122.7 437 107.3 416 92C395 76.7 323 61.3 312.5 46C302 30.7 353 15.3 378.5 7.7L404 0L450 0L418.5 7.7C387 15.3 324 30.7 337.5 46C351 61.3 441 76.7 463.5 92C486 107.3 441 122.7 399 138.2C357 153.7 318 169.3 336 184.8C354 200.3 429 215.7 465 231C501 246.3 498 261.7 477 277C456 292.3 417 307.7 423 323C429 338.3 480 353.7 498 369C516 384.3 501 399.7 462 415.2C423 430.7 360 446.3 354 461.8C348 477.3 399 492.7 424.5 508C450 523.3 450 538.7 460.5 554C471 569.3 492 584.7 502.5 592.3L513 600Z" fill="#00cd9f"></path><path d="M449 600L444.5 592.3C440 584.7 431 569.3 414.5 554C398 538.7 374 523.3 347 508C320 492.7 290 477.3 299 461.8C308 446.3 356 430.7 390.5 415.2C425 399.7 446 384.3 432.5 369C419 353.7 371 338.3 363.5 323C356 307.7 389 292.3 407 277C425 261.7 428 246.3 386 231C344 215.7 257 200.3 242 184.8C227 169.3 284 153.7 323 138.2C362 122.7 383 107.3 366.5 92C350 76.7 296 61.3 291.5 46C287 30.7 332 15.3 354.5 7.7L377 0L405 0L379.5 7.7C354 15.3 303 30.7 313.5 46C324 61.3 396 76.7 417 92C438 107.3 408 122.7 366 138.2C324 153.7 270 169.3 280.5 184.8C291 200.3 366 215.7 409.5 231C453 246.3 465 261.7 451.5 277C438 292.3 399 307.7 405 323C411 338.3 462 353.7 475.5 369C489 384.3 465 399.7 424.5 415.2C384 430.7 327 446.3 316.5 461.8C306 477.3 342 492.7 369 508C396 523.3 414 538.7 435 554C456 569.3 480 584.7 492 592.3L504 600Z" fill="#00c7b0"></path><path d="M395 600L384.5 592.3C374 584.7 353 569.3 338 554C323 538.7 314 523.3 293 508C272 492.7 239 477.3 239 461.8C239 446.3 272 430.7 299 415.2C326 399.7 347 384.3 338 369C329 353.7 290 338.3 284 323C278 307.7 305 292.3 326 277C347 261.7 362 246.3 324.5 231C287 215.7 197 200.3 179 184.8C161 169.3 215 153.7 246.5 138.2C278 122.7 287 107.3 272 92C257 76.7 218 61.3 221 46C224 30.7 269 15.3 291.5 7.7L314 0L378 0L355.5 7.7C333 15.3 288 30.7 292.5 46C297 61.3 351 76.7 367.5 92C384 107.3 363 122.7 324 138.2C285 153.7 228 169.3 243 184.8C258 200.3 345 215.7 387 231C429 246.3 426 261.7 408 277C390 292.3 357 307.7 364.5 323C372 338.3 420 353.7 433.5 369C447 384.3 426 399.7 391.5 415.2C357 430.7 309 446.3 300 461.8C291 477.3 321 492.7 348 508C375 523.3 399 538.7 415.5 554C432 569.3 441 584.7 445.5 592.3L450 600Z" fill="#00c1bc"></path><path d="M125 600L134 592.3C143 584.7 161 569.3 164 554C167 538.7 155 523.3 143 508C131 492.7 119 477.3 104 461.8C89 446.3 71 430.7 69.5 415.2C68 399.7 83 384.3 101 369C119 353.7 140 338.3 144.5 323C149 307.7 137 292.3 138.5 277C140 261.7 155 246.3 140 231C125 215.7 80 200.3 63.5 184.8C47 169.3 59 153.7 72.5 138.2C86 122.7 101 107.3 104 92C107 76.7 98 61.3 98 46C98 30.7 107 15.3 111.5 7.7L116 0L315 0L292.5 7.7C270 15.3 225 30.7 222 46C219 61.3 258 76.7 273 92C288 107.3 279 122.7 247.5 138.2C216 153.7 162 169.3 180 184.8C198 200.3 288 215.7 325.5 231C363 246.3 348 261.7 327 277C306 292.3 279 307.7 285 323C291 338.3 330 353.7 339 369C348 384.3 327 399.7 300 415.2C273 430.7 240 446.3 240 461.8C240 477.3 273 492.7 294 508C315 523.3 324 538.7 339 554C354 569.3 375 584.7 385.5 592.3L396 600Z" fill="#00bac5"></path><path d="M26 600L30.5 592.3C35 584.7 44 569.3 44 554C44 538.7 35 523.3 32 508C29 492.7 32 477.3 32 461.8C32 446.3 29 430.7 29 415.2C29 399.7 32 384.3 39.5 369C47 353.7 59 338.3 60.5 323C62 307.7 53 292.3 57.5 277C62 261.7 80 246.3 74 231C68 215.7 38 200.3 24.5 184.8C11 169.3 14 153.7 14 138.2C14 122.7 11 107.3 9.5 92C8 76.7 8 61.3 18.5 46C29 30.7 50 15.3 60.5 7.7L71 0L117 0L112.5 7.7C108 15.3 99 30.7 99 46C99 61.3 108 76.7 105 92C102 107.3 87 122.7 73.5 138.2C60 153.7 48 169.3 64.5 184.8C81 200.3 126 215.7 141 231C156 246.3 141 261.7 139.5 277C138 292.3 150 307.7 145.5 323C141 338.3 120 353.7 102 369C84 384.3 69 399.7 70.5 415.2C72 430.7 90 446.3 105 461.8C120 477.3 132 492.7 144 508C156 523.3 168 538.7 165 554C162 569.3 144 584.7 135 592.3L126 600Z" fill="#21b3c8"></path><path d="M0 600L0 592.3C0 584.7 0 569.3 0 554C0 538.7 0 523.3 0 508C0 492.7 0 477.3 0 461.8C0 446.3 0 430.7 0 415.2C0 399.7 0 384.3 0 369C0 353.7 0 338.3 0 323C0 307.7 0 292.3 0 277C0 261.7 0 246.3 0 231C0 215.7 0 200.3 0 184.8C0 169.3 0 153.7 0 138.2C0 122.7 0 107.3 0 92C0 76.7 0 61.3 0 46C0 30.7 0 15.3 0 7.7L0 0L72 0L61.5 7.7C51 15.3 30 30.7 19.5 46C9 61.3 9 76.7 10.5 92C12 107.3 15 122.7 15 138.2C15 153.7 12 169.3 25.5 184.8C39 200.3 69 215.7 75 231C81 246.3 63 261.7 58.5 277C54 292.3 63 307.7 61.5 323C60 338.3 48 353.7 40.5 369C33 384.3 30 399.7 30 415.2C30 430.7 33 446.3 33 461.8C33 477.3 30 492.7 33 508C36 523.3 45 538.7 45 554C45 569.3 36 584.7 31.5 592.3L27 600Z" fill="#47abc7"></path></svg>